# xmcd
#
# Track frame offsets: 
#        150
#        10354
#        21709
#        34502
#        47731
#        60412
#        72008
#        83268
#        94260
#        106890
#        120437
#        135556
#
# Disc length: 1983 seconds
#
# Revision: 1
# Processed by: cddbd v1.5.2PL0 Copyright (c) Steve Scherf et al.
# Submitted via: ExactAudioCopyFreeDBPlugin 1.0
#
DISCID=8f07bd0c
DTITLE=Marvin Gaye_Tammi Terrell - You're All I Need_2016
DYEAR=1968
DGENRE=R&B
TTITLE0=Ain't Nothing Like The Real Thing
TTITLE1=Keep On Loving Me Honey
TTITLE2=U're All I Need 2 Get By
TTITLE3=Baby Don'tcha Worry
TTITLE4=U Ain't Livin 'Til U're Luvin
TTITLE5=Give In_U Just Can't Win
TTITLE6=When Luv Comes Knockin @ Ur Hrt
TTITLE7=Come On and See Me
TTITLE8=I Can't Help But Love U
TTITLE9=That's How It Is
TTITLE10=I'll Never Stop Loving U Baby
TTITLE11=Memory Chest
EXTD=
EXTT0=
EXTT1=
EXTT2=
EXTT3=
EXTT4=
EXTT5=
EXTT6=
EXTT7=
EXTT8=
EXTT9=
EXTT10=
EXTT11=
PLAYORDER=
